<svg width="1172" height="610" viewBox="0 0 1172 610" fill="none" xmlns="http://www.w3.org/2000/svg">
<path d="M232.509 53.2361C160.537 -30.6904 20.5 18.1041 20.5 18.1041V589H1167.5C1167.5 589 1156.68 486.841 1107.9 450.098C1029.74 391.22 948.977 450.098 948.977 450.098C948.977 450.098 905.664 316.026 797.216 278.016C625.59 217.863 520.399 382.762 520.399 382.762C520.399 382.762 524.959 312.823 445.17 267.932C365.382 223.041 274.52 267.932 274.52 267.932C274.52 267.932 304.482 137.163 232.509 53.2361Z" fill="#0D0D0D" stroke="#D3D3D3" stroke-width="7"/>
<path d="M17 589L1171.5 589" stroke="#0D0D0D" stroke-width="41"/>
<path d="M20.5 603.5V8" stroke="#0D0D0D" stroke-width="41"/>
</svg>
