<svg width="1278" height="727" viewBox="0 0 1278 727" fill="none" xmlns="http://www.w3.org/2000/svg">
<path d="M189.418 18.7045C106.834 2.6812 92.8906 18.4018 92.8906 18.4018L94.4748 515.5L1221.79 519.037C1221.79 519.037 1221.6 460.577 1097.77 411.284C997.308 371.292 894.864 459.552 894.864 459.552C894.864 459.552 907.974 391.986 851.254 350.934C809.202 320.498 749.763 343.762 749.763 343.762C749.763 343.762 775.008 205.771 624.069 120.063C473.131 34.3552 336.08 155.329 336.08 155.329C336.08 155.329 310.657 42.2278 189.418 18.7045Z" fill="#0D0D0D" stroke="#0D0D0D" stroke-width="7"/>
<path d="M92.8906 18.4018C92.8906 18.4018 106.834 2.6812 189.418 18.7045C310.657 42.2278 336.08 155.329 336.08 155.329C336.08 155.329 473.131 34.3552 624.069 120.063C775.008 205.771 749.763 343.762 749.763 343.762C749.763 343.762 809.202 320.498 851.254 350.934C907.974 391.986 894.864 459.552 894.864 459.552C894.864 459.552 997.308 371.292 1097.77 411.284C1221.6 460.577 1221.79 519.037 1221.79 519.037" stroke="#D3D3D3" stroke-width="7"/>
</svg>
