<svg width="1918" height="914" viewBox="0 0 1918 914" fill="none" xmlns="http://www.w3.org/2000/svg">
<path d="M147 232.5C80 188.5 3.5 208 3.5 208L3.5 910L1103.5 910V679.001C1103.5 679.001 1105.45 614.806 974.5 590.001C868.257 569.876 805 647.501 805 647.501C805 647.501 822.5 569.997 759 540.501C711.92 518.631 658 528.001 658 528.001C658 528.001 667.5 348.39 503 293C338.5 237.61 244.5 349 244.5 349C244.5 349 238.752 292.756 147 232.5Z" fill="#0D0D0D" stroke="#0D0D0D" stroke-width="7"/>
<path d="M0.999268 208.501C0.999268 208.501 49.5 200 77 204.001C199.213 221.781 246.499 345.501 246.499 345.501C246.499 345.501 342.999 238.611 507.499 294.001C671.999 349.39 661.499 528.501 661.499 528.501C661.499 528.501 707.419 513.132 754.499 535.001C817.999 564.498 805.999 641.501 805.999 641.501C805.999 641.501 859.758 578.314 967.499 587.501C1032 593.001 1073 629.001 1073 629.001" stroke="#D3D3D3" stroke-width="7"/>
<path d="M1245.5 473.5C1079.5 511.956 1074.5 641 1074.5 641C1074.5 641 1080.76 662.5 1096.5 662.5C1100 662.5 1109.94 675 1109.94 675L1107.5 910L1914.5 905V6.5C1682.5 6.49994 1761.5 250 1761.5 250C1600 232 1639.5 370.729 1639.5 370.729C1639.5 370.729 1565.5 327.729 1473 370.729C1380.5 413.729 1419 522.5 1419 522.5C1419 522.5 1361.77 446.565 1245.5 473.5Z" fill="#0D0D0D" stroke="#0D0D0D" stroke-width="7"/>
<path d="M1073.5 629C1073.5 629 1090.5 508.956 1256.5 470.5C1372.77 443.565 1421.5 529 1421.5 529C1421.5 529 1381 417.609 1473.5 374.608C1566 331.608 1639 374.608 1639 374.608C1639 374.608 1603.5 230.5 1762.5 250C1762.5 250 1682.5 3.49994 1914.5 3.5" stroke="#D3D3D3" stroke-width="7"/>
</svg>
