<svg width="858" height="650" viewBox="0 0 858 650" fill="none" xmlns="http://www.w3.org/2000/svg">
<path d="M62.0428 498.631C-7.79086 543.812 8.78958 632.051 8.78958 632.051L853.537 631.265L851.288 20.7694C851.288 20.7694 773.926 -9.51224 720.251 10.752C553.211 73.8146 614.604 242.643 614.604 242.643C614.604 242.643 575.538 224.845 551.053 228.877C495.586 238.01 479.84 307.14 479.84 307.14C479.84 307.14 378.659 242.316 300.576 289.038C173.689 364.963 222.081 508.591 222.081 508.591C222.081 508.591 146.617 443.913 62.0428 498.631Z" fill="#0D0D0D" stroke="#D3D3D3" stroke-width="7"/>
<path d="M3.1709 632.06L857.132 631.265" stroke="#0D0D0D" stroke-width="35"/>
</svg>
