<svg width="1084" height="888" viewBox="0 0 1084 888" fill="none" xmlns="http://www.w3.org/2000/svg">
<path d="M233.35 485.249C80.6401 560.844 99.2753 639.717 99.2753 639.717C99.2753 639.717 119.182 654.951 127.977 668C136.833 681.14 143.477 705.5 143.477 705.5L926.495 705.5L926.495 5.00001C700.711 58.3457 777.964 254.847 777.964 254.847C624.379 239.758 658.64 384.766 658.64 384.766C658.64 384.766 567.822 317.855 487.688 380.973C407.553 444.09 453.923 525.098 453.923 525.098C453.923 525.098 340.309 432.302 233.35 485.249Z" fill="#0D0D0D" stroke="#0D0D0D" stroke-width="7"/>
<path d="M99.2753 639.717C99.2753 639.717 80.6401 560.844 233.35 485.249C340.309 432.302 453.923 525.098 453.923 525.098C453.923 525.098 407.553 444.09 487.688 380.973C567.822 317.855 658.64 384.766 658.64 384.766C658.64 384.766 624.38 239.758 777.964 254.847C777.964 254.847 700.711 58.3456 926.495 4.99999" stroke="#D3D3D3" stroke-width="7"/>
</svg>
