<svg width="1155" height="593" viewBox="0 0 1155 593" fill="none" xmlns="http://www.w3.org/2000/svg">
<path d="M215.509 53.2361C143.537 -30.6904 3.5 18.1041 3.5 18.1041V589H1150.5C1150.5 589 1139.68 486.841 1090.9 450.098C1012.74 391.22 931.977 450.098 931.977 450.098C931.977 450.098 888.664 316.026 780.216 278.016C608.59 217.863 503.399 382.762 503.399 382.762C503.399 382.762 507.959 312.823 428.17 267.932C348.382 223.041 257.52 267.932 257.52 267.932C257.52 267.932 287.482 137.163 215.509 53.2361Z" fill="#0D0D0D" stroke="#D3D3D3" stroke-width="7"/>
<path d="M0 589L1154.5 589" stroke="#0D0D0D" stroke-width="7"/>
<path d="M3.5 589V14" stroke="#0D0D0D" stroke-width="7"/>
</svg>
