<svg width="1353" height="407" viewBox="0 0 1353 407" fill="none" xmlns="http://www.w3.org/2000/svg">
<g filter="url(#filter0_d_437_72)">
<path d="M193 4C60.9068 4.00001 8 112 8 112V395H1344.5C1344.5 395 1329.5 239.5 1159.5 220C1052.01 207.67 969.5 307.5 969.5 307.5C969.5 307.5 969.5 237.5 906 207.5C858.92 185.258 805 220 805 220C805 220 803.5 77.3342 639 21C474.5 -35.3342 363 112 363 112C363 112 316.5 3.99999 193 4Z" fill="#0D0D0D" stroke="#D3D3D3" stroke-width="7"/>
<path d="M8 96V395H1348.5" stroke="#0D0D0D" stroke-width="7"/>
</g>
<defs>
<filter id="filter0_d_437_72" x="0.5" y="0.5" width="1352" height="406" filterUnits="userSpaceOnUse" color-interpolation-filters="sRGB">
<feFlood flood-opacity="0" result="BackgroundImageFix"/>
<feColorMatrix in="SourceAlpha" type="matrix" values="0 0 0 0 0 0 0 0 0 0 0 0 0 0 0 0 0 0 127 0" result="hardAlpha"/>
<feOffset dy="4"/>
<feGaussianBlur stdDeviation="2"/>
<feComposite in2="hardAlpha" operator="out"/>
<feColorMatrix type="matrix" values="0 0 0 0 0 0 0 0 0 0 0 0 0 0 0 0 0 0 0.25 0"/>
<feBlend mode="normal" in2="BackgroundImageFix" result="effect1_dropShadow_437_72"/>
<feBlend mode="normal" in="SourceGraphic" in2="effect1_dropShadow_437_72" result="shape"/>
</filter>
</defs>
</svg>
