<svg width="854" height="636" viewBox="0 0 854 636" fill="none" xmlns="http://www.w3.org/2000/svg">
<path d="M59.3791 496.277C-10.6205 541.2 5.63477 629.5 5.63477 629.5L850.38 631.826V21.3256C850.38 21.3256 773.13 -9.24075 719.38 10.8256C552.109 73.2724 612.88 242.326 612.88 242.326C612.88 242.326 573.88 224.384 549.38 228.326C493.88 237.255 477.879 306.326 477.879 306.326C477.879 306.326 376.938 241.13 298.682 287.564C171.517 363.021 219.379 506.826 219.379 506.826C219.379 506.826 144.155 441.87 59.3791 496.277Z" fill="#0D0D0D" stroke="#D3D3D3" stroke-width="7"/>
<path d="M5.63477 629.5L850.38 631.826V21.3257" stroke="#0D0D0D" stroke-width="7"/>
</svg>
